<svg width="256" height="256" viewBox="0 0 256 256" fill="none" xmlns="http://www.w3.org/2000/svg">
  <rect width="256" height="256" rx="56" fill="#122238"/>
  <path d="M48 72C48 58.7452 58.7452 48 72 48H152C165.255 48 176 58.7452 176 72V86H144V80H80V176H144V170H176V184C176 197.255 165.255 208 152 208H72C58.7452 208 48 197.255 48 184V72Z" fill="#F5F7FA"/>
  <path d="M150 102H184L208 128L184 154H150V140H182L194 128L182 116H150V102Z" fill="#F37A45"/>
  <path d="M108 112H150V144H108V112Z" fill="#28A5A8"/>
  <path d="M96 96H160L144 80H112L96 96Z" fill="#F8B78D"/>
</svg>
